<svg width="14" height="14" viewBox="0 0 14 14" fill="none" xmlns="http://www.w3.org/2000/svg">
<g clip-path="url(#clip0_2:251)">
<path d="M7.35071 8.06063C7.13204 8.14376 6.89052 8.14405 6.67165 8.06143L2.54883 6.49075V10.0512C2.54883 10.1158 2.56848 10.1789 2.60516 10.232C2.64184 10.2852 2.69382 10.326 2.75421 10.349L6.89696 11.9264C6.96992 11.9542 7.05056 11.9542 7.12353 11.9264L11.2663 10.349C11.3267 10.326 11.3786 10.2852 11.4153 10.232C11.452 10.1789 11.4717 10.1158 11.4717 10.0512V6.49072L7.35071 8.06063Z" fill="#8F9ABA"/>
<path d="M13.8167 4.32015L7.12459 1.77077C7.05141 1.74308 6.97063 1.74308 6.89744 1.77077L0.205321 4.32015C0.144941 4.34313 0.0929725 4.38392 0.0563041 4.43711C0.0196358 4.4903 0 4.55338 0 4.61798C0 4.68259 0.0196358 4.74566 0.0563041 4.79885C0.0929725 4.85204 0.144941 4.89283 0.205321 4.91581L6.89744 7.46519C6.97061 7.49298 7.05143 7.49298 7.12459 7.46519L13.8167 4.91581C13.8771 4.89283 13.9291 4.85204 13.9657 4.79885C14.0024 4.74566 14.022 4.68259 14.022 4.61798C14.022 4.55338 14.0024 4.4903 13.9657 4.43711C13.9291 4.38392 13.8771 4.34313 13.8167 4.32015Z" fill="#8F9ABA"/>
<path d="M1.59406 11.3103C1.50955 11.3103 1.42849 11.2768 1.36873 11.217C1.30896 11.1572 1.27539 11.0762 1.27539 10.9917V5.10383C1.27539 5.01931 1.30896 4.93826 1.36873 4.87849C1.42849 4.81873 1.50955 4.78516 1.59406 4.78516C1.67858 4.78516 1.75964 4.81873 1.8194 4.87849C1.87916 4.93826 1.91274 5.01931 1.91274 5.10383V10.9917C1.91274 11.0762 1.87916 11.1572 1.8194 11.217C1.75964 11.2768 1.67858 11.3103 1.59406 11.3103Z" fill="#8F9ABA"/>
<path d="M1.59274 10.6729C1.33927 10.6731 1.09626 10.7739 0.917037 10.9532C0.737809 11.1324 0.636997 11.3754 0.636719 11.6289V12.9036C0.636719 12.9881 0.670293 13.0691 0.730056 13.1289C0.789819 13.1887 0.870874 13.2222 0.955391 13.2222H2.23008C2.3146 13.2222 2.39565 13.1887 2.45542 13.1289C2.51518 13.0691 2.54875 12.9881 2.54875 12.9036V11.6289C2.54848 11.3754 2.44766 11.1324 2.26844 10.9532C2.08921 10.7739 1.8462 10.6731 1.59274 10.6729Z" fill="#8F9ABA"/>
</g>
<defs>
<clipPath id="clip0_2:251">
<rect width="14" height="14" fill="white"/>
</clipPath>
</defs>
</svg>
