<svg width="180" height="123" viewBox="0 0 180 123" fill="none" xmlns="http://www.w3.org/2000/svg">
<path d="M177.006 113.008C178.937 111.077 180 108.509 180 105.779C180 103.048 178.937 100.481 177.006 98.5495L102.271 23.8154C100.944 22.4882 98.7925 22.4884 97.4653 23.8154L87.8129 33.4676C87.1755 34.1049 86.8173 34.9693 86.8173 35.8706C86.8173 36.7718 87.1753 37.6362 87.8129 38.2735L162.547 113.008C164.54 115.001 167.158 115.997 169.776 115.997C172.394 115.997 175.012 115.001 177.006 113.008Z" fill="#615F82"/>
<path d="M87.813 33.4676C87.1757 34.1049 86.8175 34.9692 86.8175 35.8705C86.8175 36.7718 87.1755 37.6361 87.813 38.2734L162.547 113.008C164.54 115.001 167.159 115.997 169.777 115.997C172.394 115.997 175.013 115.001 177.006 113.008L92.6392 28.6414L87.813 33.4676Z" fill="#212C52"/>
<path d="M108.35 88.7015C83.856 88.7015 64 68.8455 64 44.3519C64 19.8583 83.856 0.00231934 108.35 0.00231934C132.843 0.00231934 152.699 19.8583 152.699 44.3519C152.699 68.8455 132.843 88.7015 108.35 88.7015Z" fill="#615F82"/>
<path d="M77.0045 13.0066C68.9738 21.0373 64.0001 32.1246 64.0001 44.352C64.0001 68.8064 83.8952 88.7016 108.35 88.7016C120.577 88.7016 131.664 83.7279 139.695 75.6971L77.0045 13.0066Z" fill="#212C52"/>
<path d="M108.349 75.0511C91.3945 75.0511 77.65 61.3066 77.65 44.3519C77.65 27.3972 91.3945 13.6527 108.349 13.6527C125.304 13.6527 139.048 27.3972 139.048 44.3519C139.048 61.3066 125.304 75.0511 108.349 75.0511Z" fill="white"/>
<path d="M108.35 75.0512C116.813 75.0512 124.488 71.6084 130.047 66.0494L86.6522 22.6545C81.0932 28.2135 77.6504 35.8883 77.6504 44.352C77.6504 61.2796 91.422 75.0512 108.35 75.0512Z" fill="#F0F7F9"/>
<path d="M47 29C21.1684 29 0 50.1684 0 76C0 101.832 21.1684 123 47 123C72.8316 123 94 101.832 94 76C94 50.1684 72.8316 29 47 29Z" fill="#FD6467"/>
<path d="M94 76C94 101.832 72.8316 123 47 123V29C72.8316 29 94 50.1684 94 76Z" fill="#E35457"/>
<path d="M54.7649 76L70.3522 91.5873L62.5864 99.3531L46.9991 83.7658L31.4118 99.3531L23.646 91.5873L39.2333 76L23.646 60.4127L31.4118 52.6469L46.9991 68.2341L62.5864 52.6469L70.3522 60.4127L54.7649 76Z" fill="white"/>
<path d="M54.7658 76L70.3531 91.5873L62.5873 99.3531L47 83.7658V68.2341L62.5873 52.6469L70.3531 60.4127L54.7658 76Z" fill="white"/>
</svg>
