<svg width="94" height="94" viewBox="0 0 94 94" fill="none" xmlns="http://www.w3.org/2000/svg">
<g clip-path="url(#clip0_559:2775)">
<path d="M47 94C72.9574 94 94 72.9574 94 47C94 21.0426 72.9574 0 47 0C21.0426 0 0 21.0426 0 47C0 72.9574 21.0426 94 47 94Z" fill="#615F82"/>
<path d="M34.9906 68.202L59.1578 92.3691C79.1736 87.0316 94.0001 68.795 94.0001 47.0001C94.0001 46.5553 94.0001 46.1105 94.0001 45.6657L75.0221 28.1704L34.9906 68.202Z" fill="#212C52"/>
<path d="M48.1861 57.5269C50.2618 59.6026 50.2618 63.161 48.1861 65.2367L43.8864 69.5364C41.8107 71.6121 38.2523 71.6121 36.1766 69.5364L17.3469 50.5584C15.2712 48.4827 15.2712 44.9244 17.3469 42.8487L21.6466 38.549C23.7223 36.4733 27.2807 36.4733 29.3564 38.549L48.1861 57.5269Z" fill="white"/>
<path d="M64.6435 24.7603C66.7192 22.6846 70.2775 22.6846 72.3532 24.7603L76.6529 29.06C78.7286 31.1357 78.7286 34.694 76.6529 36.7697L44.0346 69.2398C41.9589 71.3155 38.4006 71.3155 36.3249 69.2398L32.0252 64.9401C29.9495 62.8644 29.9495 59.306 32.0252 57.2303L64.6435 24.7603Z" fill="white"/>
</g>
<defs>
<clipPath id="clip0_559:2775">
<rect width="94" height="94" fill="white"/>
</clipPath>
</defs>
</svg>
