<svg width="94" height="94" viewBox="0 0 94 94" fill="none" xmlns="http://www.w3.org/2000/svg">
<path d="M47 0C21.1684 0 0 21.1684 0 47C0 72.8316 21.1684 94 47 94C72.8316 94 94 72.8316 94 47C94 21.1684 72.8316 0 47 0Z" fill="#FD6467"/>
<path d="M94 47C94 72.8316 72.8316 94 47 94V0C72.8316 0 94 21.1684 94 47Z" fill="#E35457"/>
<path d="M54.7649 47L70.3522 62.5873L62.5864 70.3531L46.9991 54.7658L31.4118 70.3531L23.646 62.5873L39.2333 47L23.646 31.4127L31.4118 23.6469L46.9991 39.2341L62.5864 23.6469L70.3522 31.4127L54.7649 47Z" fill="white"/>
<path d="M54.7658 47L70.3531 62.5873L62.5873 70.3531L47 54.7658V39.2341L62.5873 23.6469L70.3531 31.4127L54.7658 47Z" fill="white"/>
</svg>
