<svg width="94" height="94" viewBox="0 0 94 94" fill="none" xmlns="http://www.w3.org/2000/svg">
<g clip-path="url(#clip0_559:2774)">
<path d="M47 94C72.9574 94 94 72.9574 94 47C94 21.0426 72.9574 0 47 0C21.0426 0 0 21.0426 0 47C0 72.9574 21.0426 94 47 94Z" fill="#63CEA1"/>
<path d="M34.9907 68.2019L59.1579 92.3691C79.1737 87.0316 94.0002 68.795 94.0002 47C94.0002 46.5552 94.0002 46.1104 94.0002 45.6656L75.0223 28.1704L34.9907 68.2019Z" fill="#47B084"/>
<path d="M48.1862 57.5269C50.2619 59.6026 50.2619 63.161 48.1862 65.2367L43.8865 69.5364C41.8108 71.6121 38.2524 71.6121 36.1767 69.5364L17.3471 50.5585C15.2714 48.4828 15.2714 44.9244 17.3471 42.8487L21.6468 38.549C23.7225 36.4733 27.2808 36.4733 29.3565 38.549L48.1862 57.5269Z" fill="white"/>
<path d="M64.6436 24.7603C66.7193 22.6846 70.2776 22.6846 72.3534 24.7603L76.653 29.06C78.7288 31.1357 78.7288 34.694 76.653 36.7697L44.0348 69.2398C41.959 71.3155 38.4007 71.3155 36.325 69.2398L32.0253 64.9401C29.9496 62.8644 29.9496 59.306 32.0253 57.2303L64.6436 24.7603Z" fill="white"/>
</g>
<defs>
<clipPath id="clip0_559:2774">
<rect width="94" height="94" fill="white"/>
</clipPath>
</defs>
</svg>
