<svg width="24" height="16" viewBox="0 0 24 16" fill="none" xmlns="http://www.w3.org/2000/svg">
<path d="M22 0H2C0.89543 0 0 0.89543 0 2V14C0 15.1046 0.89543 16 2 16H22C23.1046 16 24 15.1046 24 14V2C24 0.89543 23.1046 0 22 0Z" fill="#016FD0"/>
<path fill-rule="evenodd" clip-rule="evenodd" d="M13.7637 13.3938V7.69238L23.9112 7.70149V9.27638L22.7383 10.5298L23.9112 11.7947V13.403H22.0386L21.0434 12.3048L20.0553 13.4071L13.7637 13.3938Z" fill="#FFFFFE"/>
<path fill-rule="evenodd" clip-rule="evenodd" d="M14.4414 12.7687V8.31982H18.2137V9.34471H15.6628V10.0404H18.1529V11.0482H15.6628V11.7315H18.2137V12.7687H14.4414Z" fill="#016FD0"/>
<path fill-rule="evenodd" clip-rule="evenodd" d="M18.1954 12.7689L20.2827 10.5419L18.1953 8.32007H19.811L21.0865 9.7301L22.3656 8.32007H23.9117V8.35507L21.8689 10.5419L23.9117 12.7057V12.7689H22.35L21.0519 11.3447L19.7671 12.7689H18.1954Z" fill="#016FD0"/>
<path fill-rule="evenodd" clip-rule="evenodd" d="M14.2369 2.63184H16.6829L17.5421 4.58269V2.63184H20.5619L21.0827 4.09341L21.6052 2.63184H23.9111V8.33323H11.7246L14.2369 2.63184Z" fill="#FFFFFE"/>
<path fill-rule="evenodd" clip-rule="evenodd" d="M14.7006 3.25146L12.7266 7.69664H14.0805L14.4529 6.80647H16.4708L16.843 7.69664H18.2306L16.2648 3.25146H14.7006ZM14.8702 5.8089L15.4622 4.39383L16.0538 5.8089H14.8702Z" fill="#016FD0"/>
<path fill-rule="evenodd" clip-rule="evenodd" d="M18.2119 7.69582V3.25073L20.115 3.25727L21.0943 5.99L22.0799 3.25073H23.9115V7.69582L22.7329 7.70625V4.6529L21.6204 7.69582H20.5446L19.4089 4.64247V7.69582H18.2119Z" fill="#016FD0"/>
</svg>
