<svg width="134" height="60" viewBox="0 0 134 60" fill="none" xmlns="http://www.w3.org/2000/svg">
<g clip-path="url(#clip0_2:856)">
<path d="M32.4557 11.8858H30V10.439H36.5528V11.8858H34.11V20.0175H32.4557V11.8858Z" fill="#C60C0F"/>
<path d="M37.8201 17.0207C37.8055 17.2749 37.8465 17.5292 37.9401 17.7661C38.0337 18.0029 38.1777 18.2166 38.3621 18.3923C38.5465 18.568 38.7669 18.7015 39.0081 18.7837C39.2492 18.8658 39.5054 18.8945 39.7587 18.8679C40.3538 18.8779 40.9455 18.7772 41.5036 18.5708L41.7427 19.7334C41.0395 20.0199 40.2854 20.1605 39.5261 20.1468C37.4194 20.1468 36.2109 18.7839 36.2109 16.6654C36.2109 14.6502 37.3483 12.958 39.3516 12.958C41.3549 12.958 42.0981 14.6502 42.0981 16.2714C42.1006 16.5245 42.0812 16.7774 42.0399 17.0271H37.8201V17.0207ZM40.5084 15.8258C40.5084 15.0442 40.2111 14.1206 39.2159 14.1206C38.2207 14.1206 37.8782 15.1024 37.8201 15.8258H40.5084Z" fill="#C60C0F"/>
<path d="M48.0434 19.8303C47.496 20.0442 46.9122 20.1495 46.3245 20.1403C44.3211 20.1403 43.0093 18.8033 43.0093 16.6137C42.9776 16.1307 43.0487 15.6465 43.2176 15.1929C43.3866 14.7393 43.6498 14.3265 43.9898 13.9818C44.3298 13.6371 44.7389 13.3683 45.1903 13.1929C45.6417 13.0176 46.1251 12.9397 46.6088 12.9644C47.1159 12.9615 47.6187 13.0581 48.0887 13.2486L47.8043 14.5404C47.4531 14.3668 47.0652 14.2804 46.6734 14.2885C45.4391 14.2885 44.7347 15.2832 44.7347 16.5621C44.7347 17.983 45.5619 18.8098 46.6734 18.8098C47.0801 18.8146 47.4832 18.7331 47.856 18.5708L48.0434 19.8303Z" fill="#C60C0F"/>
<path d="M49.2061 10.0127H50.8863V13.9914C51.0905 13.6727 51.3728 13.4116 51.7066 13.233C52.0403 13.0543 52.4142 12.9641 52.7927 12.9709C53.943 12.9709 54.9964 13.7782 54.9964 15.8709V20.0369H53.3162V15.9936C53.3162 15.07 53.0189 14.3337 52.1336 14.3337C51.8587 14.341 51.5932 14.4358 51.3759 14.6042C51.1586 14.7726 51.0007 15.0059 50.9251 15.2702C50.8729 15.4396 50.8488 15.6163 50.854 15.7934V20.0175H49.1738V10.0127H49.2061Z" fill="#C60C0F"/>
<path d="M56.7418 15.1284C56.7418 14.334 56.7418 13.7075 56.6836 13.0939H58.1505L58.2345 14.0627C58.4495 13.7152 58.7517 13.4298 59.111 13.235C59.4704 13.0401 59.8744 12.9425 60.2831 12.9518C61.4657 12.9518 62.532 13.7591 62.532 15.7808V20.0178H60.8906V15.9681C60.8906 15.0574 60.5933 14.334 59.7273 14.334C59.4482 14.3433 59.1796 14.4427 58.9618 14.6174C58.7439 14.792 58.5886 15.0325 58.5189 15.3028C58.4592 15.4907 58.4308 15.6871 58.4349 15.8841V20.0178H56.7547V15.1284H56.7418Z" fill="#C60C0F"/>
<path d="M67.0617 20.1597C65.2587 20.1597 63.8887 18.8679 63.8887 16.5944C63.8887 14.3208 65.3104 12.958 67.1198 12.958C68.9293 12.958 70.2605 14.3531 70.2605 16.5104C70.2605 19.094 68.5674 20.1597 67.0294 20.1597H67.0617ZM67.1069 18.926C68.031 18.926 68.5738 17.8345 68.5738 16.5556C68.5738 15.4899 68.1926 14.1981 67.1069 14.1981C66.0212 14.1981 65.6141 15.4899 65.6141 16.5685C65.6141 17.8603 66.1376 18.926 67.094 18.926H67.1069Z" fill="#C60C0F"/>
<path d="M71.6426 10.0127H73.3228V20.0175H71.6426V10.0127Z" fill="#C60C0F"/>
<path d="M77.8859 20.1597C76.0829 20.1597 74.7129 18.8679 74.7129 16.5944C74.7129 14.3208 76.1346 12.958 77.944 12.958C79.7535 12.958 81.0847 14.3531 81.0847 16.5104C81.0847 19.094 79.3916 20.1597 77.8536 20.1597H77.8859ZM77.9311 18.926C78.8552 18.926 79.3981 17.8345 79.3981 16.5556C79.3981 15.4899 79.0168 14.1981 77.9311 14.1981C76.8455 14.1981 76.4383 15.4899 76.4383 16.5685C76.4383 17.8603 76.9618 18.926 77.9182 18.926H77.9311Z" fill="#C60C0F"/>
<path d="M88.2505 19.0555C88.2505 20.5605 87.9662 21.497 87.3006 22.1235C86.5964 22.6941 85.7047 22.982 84.7997 22.9309C84.045 22.9504 83.297 22.7841 82.6219 22.4465L82.9773 21.1547C83.531 21.4749 84.16 21.6421 84.7997 21.6391C85.8659 21.6391 86.5897 21.0449 86.5897 19.6046V19.0555C86.4002 19.3552 86.1348 19.5997 85.8205 19.7641C85.5062 19.9285 85.1541 20.0072 84.7997 19.9921C83.1776 19.9921 82.1113 18.5259 82.1113 16.6076C82.1113 14.2889 83.4749 12.9713 84.9806 12.9713C85.3368 12.9596 85.6892 13.0462 85.9993 13.2217C86.3094 13.3972 86.5651 13.6547 86.7384 13.9659L86.8094 13.1004H88.2764C88.2764 13.5978 88.2182 14.192 88.2182 15.1479V19.0555H88.2505ZM86.5703 15.7744C86.5737 15.611 86.5541 15.448 86.5122 15.29C86.451 15.0049 86.295 14.7489 86.0697 14.5636C85.8445 14.3783 85.5631 14.2747 85.2714 14.2695C84.3731 14.2695 83.7657 15.1479 83.7657 16.5301C83.7657 17.8219 84.3214 18.6874 85.2585 18.6874C85.5351 18.685 85.8036 18.594 86.0247 18.4278C86.2457 18.2615 86.4075 18.0288 86.4863 17.7638C86.5464 17.5539 86.5747 17.3362 86.5703 17.1179V15.7809V15.7744Z" fill="#C60C0F"/>
<path d="M91.0632 13.1001L92.1747 16.8204C92.304 17.2596 92.4332 17.757 92.5172 18.1122H92.556C92.6529 17.7311 92.7693 17.2338 92.8856 16.8204L93.8549 13.1001H95.6062L93.9971 17.8926C93.2281 20.1532 92.6336 21.3998 91.8387 22.1878C91.3698 22.6614 90.7721 22.987 90.1197 23.1243L89.6932 21.7034C90.0589 21.5933 90.3978 21.4086 90.6884 21.1608C91.0492 20.8741 91.3407 20.5098 91.5414 20.0951C91.5996 20.0017 91.633 19.895 91.6384 19.7851C91.6346 19.6781 91.6105 19.5729 91.5673 19.475L89.2344 13.1066H91.0697L91.0632 13.1001Z" fill="#C60C0F"/>
<path d="M32.5724 31.5858L31.8486 34.2275H30.1426L32.9408 24.6489H35.041L37.8134 34.2275H36.0427L35.2866 31.5858H32.5724ZM35.0346 30.294L34.3883 27.9753C34.2332 27.3617 34.0781 26.6835 33.9489 26.0376C33.8196 26.6318 33.6645 27.3746 33.5224 27.9753L32.8761 30.294H35.041H35.0346Z" fill="#EA5B0C"/>
<path d="M38.9175 29.4544C38.9175 28.6148 38.9175 27.9172 38.8594 27.3101H40.3069L40.378 28.5437H40.4362C40.55 28.1652 40.777 27.8306 41.0865 27.5847C41.3961 27.3388 41.7735 27.1934 42.1681 27.168C42.295 27.1589 42.4224 27.1589 42.5494 27.168V28.7892C42.4008 28.7567 42.249 28.7416 42.097 28.7439C41.7375 28.7456 41.3908 28.8773 41.1211 29.1148C40.8514 29.3523 40.6769 29.6795 40.6301 30.0357C40.5987 30.2235 40.5835 30.4137 40.5848 30.6041V34.2146H38.9175V29.4544Z" fill="#EA5B0C"/>
<path d="M45.898 25.5142V27.2774H47.4619V28.5111H45.898V31.7405C45.898 32.5802 46.1565 32.9484 46.7381 32.9484C46.9332 32.9627 47.1293 32.9475 47.3197 32.9031L47.365 34.1949C46.9765 34.3061 46.5735 34.3583 46.1694 34.3499C45.9112 34.365 45.6526 34.3263 45.4101 34.2362C45.1676 34.1462 44.9464 34.0067 44.7607 33.8268C44.3317 33.2774 44.1366 32.5812 44.2178 31.8891V28.5434H43.3066V27.3097H44.2437V26.018L45.898 25.5142Z" fill="#EA5B0C"/>
<path d="M48.5667 32.6773C49.0521 32.9545 49.5977 33.1096 50.1564 33.1294C50.8543 33.1294 51.1968 32.8194 51.1968 32.3479C51.1968 31.8764 50.9383 31.6374 50.1435 31.308C48.8898 30.7977 48.3922 30.0872 48.3922 29.2928C48.3922 28.085 49.3615 27.1614 50.8672 27.1614C51.4517 27.1547 52.0288 27.2923 52.5474 27.5618L52.2049 28.7438C51.8131 28.5118 51.3678 28.385 50.9125 28.3756C50.804 28.3551 50.6924 28.3582 50.5852 28.3847C50.478 28.4112 50.3778 28.4604 50.2913 28.529C50.2049 28.5977 50.1342 28.6841 50.0842 28.7824C50.0341 28.8808 50.0059 28.9888 50.0013 29.099C50.0013 29.5253 50.2856 29.7449 51.0934 30.0808C52.2566 30.5652 52.8124 31.2176 52.8124 32.1864C52.8124 33.4782 51.8301 34.3437 50.1564 34.3437C49.4927 34.3586 48.8363 34.2029 48.25 33.8915L48.5667 32.6773Z" fill="#EA5B0C"/>
<path d="M56.8581 32.4058C57.4879 32.7589 58.1975 32.9456 58.9196 32.9483C59.9859 32.9483 60.5804 32.4251 60.5804 31.6565C60.5804 30.8879 60.0957 30.4939 59.0036 30.0224C57.5819 29.4282 56.6578 28.5433 56.6578 27.2645C56.6578 25.7273 57.8662 24.5388 59.889 24.5388C60.5913 24.5226 61.2879 24.6685 61.9246 24.9651L61.5368 26.3408C61.0102 26.0667 60.4246 25.9248 59.8308 25.9275C58.7904 25.9275 58.338 26.5088 58.338 27.0772C58.338 27.8135 58.8485 28.1558 60.044 28.6854C61.5627 29.3701 62.2735 30.2356 62.2735 31.5015C62.2735 33.0904 61.0909 34.3564 58.8356 34.3564C58.0303 34.3612 57.2352 34.1752 56.5156 33.8138L56.8581 32.4058Z" fill="#B62584"/>
<path d="M68.3852 34.0402C67.8378 34.2542 67.254 34.3595 66.6662 34.3502C64.6629 34.3502 63.3511 33.0133 63.3511 30.8237C63.3194 30.3407 63.3904 29.8565 63.5594 29.4028C63.7284 28.9492 63.9916 28.5365 64.3316 28.1918C64.6716 27.8471 65.0807 27.5782 65.5321 27.4029C65.9835 27.2275 66.4669 27.1497 66.9506 27.1744C67.4577 27.1715 67.9605 27.268 68.4305 27.4586L68.1461 28.7504C67.7879 28.5781 67.393 28.4961 66.9958 28.5114C65.7615 28.5114 65.0571 29.5061 65.0571 30.7849C65.0571 32.2059 65.8843 33.0326 66.9958 33.0326C67.4025 33.0376 67.8056 32.9562 68.1784 32.7936L68.3852 34.0402Z" fill="#B62584"/>
<path d="M70.3769 26.328C70.2551 26.3316 70.1339 26.3102 70.0209 26.2649C69.9078 26.2196 69.8053 26.1515 69.7198 26.0648C69.6342 25.9781 69.5675 25.8747 69.5238 25.761C69.4801 25.6474 69.4603 25.526 69.4657 25.4043C69.462 25.281 69.4839 25.1581 69.5298 25.0436C69.5758 24.929 69.6449 24.8251 69.7328 24.7384C69.8208 24.6517 69.9257 24.5841 70.0409 24.5398C70.1562 24.4954 70.2794 24.4753 70.4028 24.4807C70.5258 24.4742 70.6489 24.4936 70.764 24.5378C70.879 24.5819 70.9835 24.6497 71.0707 24.7368C71.1578 24.8239 71.2257 24.9283 71.2698 25.0433C71.3139 25.1583 71.3334 25.2813 71.3269 25.4043C71.3315 25.528 71.3104 25.6512 71.2647 25.7663C71.2191 25.8813 71.15 25.9856 71.0619 26.0724C70.9738 26.1593 70.8685 26.2269 70.7528 26.2709C70.6371 26.3149 70.5135 26.3343 70.3898 26.328H70.3769ZM69.5497 34.2272V27.3097H71.2299V34.2272H69.5497Z" fill="#B62584"/>
<path d="M74.215 31.2306C74.2005 31.4849 74.2415 31.7392 74.3351 31.976C74.4287 32.2129 74.5727 32.4265 74.7571 32.6023C74.9415 32.778 75.1619 32.9115 75.4031 32.9936C75.6442 33.0758 75.9004 33.1045 76.1537 33.0779C76.7401 33.0846 77.3227 32.9839 77.8727 32.7808L78.1118 33.9434C77.4087 34.2302 76.6545 34.3709 75.8952 34.3567C73.7885 34.3567 72.5801 32.9939 72.5801 30.8754C72.5801 28.8602 73.7174 27.168 75.7208 27.168C77.7241 27.168 78.4672 28.8602 78.4672 30.4814C78.4698 30.7345 78.4503 30.9873 78.4091 31.2371H74.215V31.2306ZM76.9034 30.0357C76.9034 29.2542 76.6061 28.3306 75.6109 28.3306C74.6157 28.3306 74.2603 29.2994 74.2021 30.0357H76.8904H76.9034Z" fill="#B62584"/>
<path d="M79.7867 29.3379C79.7867 28.5435 79.7867 27.9169 79.7285 27.3033H81.1955L81.2795 28.2722C81.4945 27.9246 81.7966 27.6393 82.1559 27.4444C82.5153 27.2496 82.9193 27.152 83.328 27.1613C84.5106 27.1613 85.5769 27.9686 85.5769 29.9902V34.2273H83.8967V30.1776C83.8967 29.2669 83.5994 28.5435 82.7335 28.5435C82.4623 28.5622 82.2039 28.6659 81.9951 28.8398C81.7862 29.0137 81.6376 29.2491 81.5703 29.5123C81.5103 29.7001 81.4819 29.8965 81.4863 30.0936V34.2273H79.8061V29.3379H79.7867Z" fill="#B62584"/>
<path d="M91.9731 34.0402C91.426 34.2552 90.8419 34.3605 90.2541 34.3502C88.2508 34.3502 86.939 33.0133 86.939 30.8237C86.9073 30.3407 86.9783 29.8565 87.1473 29.4028C87.3163 28.9492 87.5795 28.5365 87.9195 28.1918C88.2595 27.8471 88.6686 27.5782 89.12 27.4029C89.5714 27.2275 90.0548 27.1497 90.5385 27.1744C91.0456 27.1715 91.5484 27.268 92.0184 27.4586L91.734 28.7504C91.3758 28.5784 90.9809 28.4963 90.5837 28.5114C89.3494 28.5114 88.645 29.5061 88.645 30.7849C88.645 32.2059 89.4722 33.0326 90.5837 33.0326C90.9904 33.0378 91.3936 32.9564 91.7663 32.7936L91.9731 34.0402Z" fill="#B62584"/>
<path d="M94.2736 31.2306C94.2591 31.4848 94.3001 31.7392 94.3937 31.976C94.4873 32.2129 94.6313 32.4265 94.8157 32.6023C95.0001 32.778 95.2205 32.9115 95.4616 32.9936C95.7028 33.0758 95.959 33.1045 96.2123 33.0779C96.7987 33.0847 97.3813 32.984 97.9313 32.7808L98.1704 33.9434C97.4673 34.23 96.7131 34.3707 95.9538 34.3567C93.8471 34.3567 92.6387 32.9939 92.6387 30.8754C92.6387 28.8602 93.776 27.168 95.7794 27.168C97.7827 27.168 98.5258 28.8602 98.5258 30.4814C98.5281 30.7345 98.5086 30.9873 98.4677 31.2371H94.2607L94.2736 31.2306ZM96.962 30.0357C96.962 29.2542 96.6647 28.3306 95.6695 28.3306C94.6743 28.3306 94.3189 29.2994 94.2607 30.0357H96.949H96.962Z" fill="#B62584"/>
<path d="M99.7606 32.6773C100.246 32.9545 100.792 33.1096 101.35 33.1294C102.048 33.1294 102.391 32.8194 102.391 32.3479C102.391 31.8764 102.132 31.6374 101.337 31.308C100.084 30.7977 99.5861 30.0873 99.5861 29.2928C99.5861 28.085 100.555 27.1614 102.061 27.1614C102.646 27.1545 103.223 27.292 103.741 27.5618L103.399 28.7438C103.007 28.5121 102.562 28.3853 102.106 28.3757C101.998 28.3563 101.887 28.3601 101.78 28.387C101.673 28.4139 101.574 28.4632 101.487 28.5317C101.401 28.6001 101.331 28.6861 101.28 28.7839C101.23 28.8817 101.201 28.9892 101.195 29.0991C101.195 29.5253 101.48 29.7449 102.287 30.0808C103.451 30.5652 104.006 31.2176 104.006 32.1864C104.006 33.4782 103.024 34.3437 101.344 34.3437C100.68 34.3586 100.024 34.2029 99.4375 33.8916L99.7606 32.6773Z" fill="#B62584"/>
<path d="M32.3903 42.0684H30.0703V40.2793H36.8105V42.0684H34.4647V49.8579H32.3903V42.0684Z" fill="black"/>
<path d="M40.4045 40.2793V44.019H43.487V40.2793H45.5614V49.8579H43.4935V45.8533H40.4045V49.8643H38.3301V40.2793H40.4045Z" fill="black"/>
<path d="M50.9258 40.2793H52.9873V44.5422H53.0325C53.2177 44.1589 53.4159 43.7886 53.627 43.4312L55.5205 40.2793H58.0085L55.1392 44.3872L58.1377 49.8579H55.7596L53.6852 45.7758L52.9873 46.7124V49.8514H50.9258V40.2793Z" fill="black"/>
<path d="M62.1042 50.0001C60.1655 50.0001 58.7891 48.6631 58.7891 46.4218C58.7891 44.1806 60.2431 42.7661 62.1818 42.7661C64.1205 42.7661 65.4129 44.2 65.4129 46.3314C65.4129 48.9731 63.681 50.0001 62.0719 50.0001H62.1042ZM60.7084 41.9264C60.4706 41.899 60.2512 41.7851 60.0919 41.6064C59.9327 41.4278 59.8447 41.1969 59.8447 40.9576C59.8447 40.7183 59.9327 40.4874 60.0919 40.3088C60.2512 40.1302 60.4706 40.0163 60.7084 39.9888C60.9462 40.0163 61.1656 40.1302 61.3248 40.3088C61.4841 40.4874 61.5721 40.7183 61.5721 40.9576C61.5721 41.1969 61.4841 41.4278 61.3248 41.6064C61.1656 41.7851 60.9462 41.899 60.7084 41.9264ZM62.1818 48.4951C62.9508 48.4951 63.3773 47.5586 63.3773 46.3766C63.3773 45.369 63.0477 44.271 62.1818 44.271C61.3158 44.271 60.8893 45.369 60.8893 46.3766C60.8893 47.5715 61.3029 48.4951 62.1236 48.4951H62.1818ZM63.5389 41.9264C63.3011 41.899 63.0817 41.7851 62.9224 41.6064C62.7632 41.4278 62.6752 41.1969 62.6752 40.9576C62.6752 40.7183 62.7632 40.4874 62.9224 40.3088C63.0817 40.1302 63.3011 40.0163 63.5389 39.9888C63.6641 39.9886 63.7881 40.0139 63.9033 40.0631C64.0185 40.1124 64.1224 40.1845 64.2088 40.2751C64.2953 40.3657 64.3624 40.4729 64.4061 40.5902C64.4497 40.7076 64.4691 40.8326 64.463 40.9576C64.4691 41.0833 64.4498 41.2089 64.4062 41.3269C64.3627 41.4449 64.2958 41.553 64.2095 41.6446C64.1233 41.7363 64.0194 41.8096 63.9042 41.8602C63.789 41.9109 63.6647 41.9378 63.5389 41.9394V41.9264Z" fill="black"/>
<path d="M67.1328 39.8403H69.2072V49.8581H67.1328V39.8403Z" fill="black"/>
<path d="M71.23 45.0978C71.23 44.2581 71.23 43.5476 71.1719 42.9082H72.9619L73.0589 43.8189H73.1041C73.326 43.4881 73.6275 43.2183 73.981 43.0344C74.3344 42.8504 74.7284 42.7582 75.1268 42.7661C76.5227 42.7661 77.4274 43.7479 77.4274 45.6403V49.8644H75.3788V45.8535C75.3788 45.059 75.1074 44.4583 74.3966 44.4583C74.1734 44.4623 73.9574 44.5379 73.7805 44.674C73.6037 44.8101 73.4753 44.9994 73.4143 45.214C73.3533 45.3971 73.3249 45.5895 73.3303 45.7824V49.8644H71.23V45.0978Z" fill="black"/>
</g>
<defs>
<clipPath id="clip0_2:856">
<rect width="74" height="40" fill="white" transform="translate(30 10)"/>
</clipPath>
</defs>
</svg>
