<svg width="49" height="49" viewBox="0 0 49 49" fill="none" xmlns="http://www.w3.org/2000/svg">
<g clip-path="url(#clip0_2:5246)">
<path d="M24.8137 18.1851C22.0533 18.1851 19.8154 20.4228 19.8154 23.1833C19.8154 25.9438 22.0532 28.1816 24.8137 28.1816C27.5741 28.1816 29.812 25.9439 29.812 23.1833C29.812 20.4228 27.5742 18.1851 24.8137 18.1851ZM24.8137 25.8014C23.3677 25.8014 22.1956 24.6292 22.1956 23.1832C22.1956 21.7372 23.3677 20.5651 24.8137 20.5651C26.2597 20.5651 27.4319 21.7372 27.4319 23.1832C27.4319 24.6292 26.2597 25.8014 24.8137 25.8014Z" fill="white"/>
<path d="M44.7479 6.76034L12.2593 3.07124C10.9984 2.89198 9.72086 3.26008 8.74867 4.08284C7.7766 4.83658 7.15349 5.95386 7.02308 7.17696L6.42811 12.0562H4.58339C1.96523 12.0562 0.00160804 14.3768 0.00160804 16.995V41.3316C-0.0643357 43.8283 1.90612 45.9058 4.40287 45.9717C4.46301 45.9733 4.52326 45.9737 4.58339 45.9729H37.2505C39.8687 45.9729 42.2488 43.9498 42.2488 41.3316V40.3796C43.0605 40.2228 43.8305 39.8985 44.5099 39.4276C45.474 38.6159 46.0913 37.4663 46.2355 36.2144L48.9727 12.0562C49.2517 9.43203 47.3685 7.07138 44.7479 6.76034ZM39.8687 41.3316C39.8687 42.6407 38.5596 43.5927 37.2505 43.5927H4.58339C3.40085 43.6275 2.41408 42.697 2.37934 41.5144C2.37752 41.4535 2.37832 41.3926 2.38173 41.3316V36.9284L11.6048 30.1451C12.7127 29.2944 14.2733 29.3701 15.294 30.3236L21.7798 36.0359C22.7647 36.8628 24.0046 37.3251 25.2905 37.3449C26.296 37.3572 27.2849 37.0895 28.1467 36.5714L39.8688 29.788V41.3316H39.8687ZM39.8687 26.9914L26.897 34.5483C25.7831 35.2082 24.3732 35.0887 23.3863 34.2508L16.841 28.479C14.965 26.867 12.2232 26.7682 10.2361 28.2409L2.38173 33.9532V16.995C2.38173 15.6859 3.27431 14.4364 4.58339 14.4364H37.2505C38.6491 14.4943 39.7786 15.5982 39.8687 16.995V26.9914ZM46.5948 11.7349C46.594 11.7428 46.5933 11.7508 46.5924 11.7586L43.7958 35.9168C43.8006 36.5432 43.5149 37.1365 43.0222 37.5234C42.7842 37.7614 42.2487 37.8805 42.2487 37.9995V16.995C42.1547 14.2842 39.9621 12.1176 37.2504 12.0562H8.80812L9.34365 7.41499C9.45982 6.81398 9.77404 6.26935 10.2362 5.86788C10.7581 5.50706 11.389 5.33884 12.0214 5.3918L44.4506 9.14046C45.759 9.26472 46.7191 10.4263 46.5948 11.7349Z" fill="white"/>
</g>
<defs>
<clipPath id="clip0_2:5246">
<rect width="49" height="49" fill="white"/>
</clipPath>
</defs>
</svg>
