<svg width="90" height="90" viewBox="0 0 90 90" fill="none" xmlns="http://www.w3.org/2000/svg">
<g clip-path="url(#clip0_2:586)">
<path d="M77.2539 63C77.2626 63.001 86.2456 63.9991 86.2539 64V89C86.2465 88.9934 77.2606 81.0059 77.2539 81L76.2539 72L77.2539 63Z" fill="#212C52"/>
<path d="M77.2539 80C77.754 80.5001 85.7538 88.4999 86.2539 89H69.2539L68.2539 84.5L69.2539 79C69.2607 79.0009 77.2471 79.9991 77.2539 80Z" fill="#212C52"/>
<path d="M69.2539 65L68.2539 59.5L69.2539 55C70.2218 55 76.2797 55 77.2539 55V64L69.2539 65Z" fill="#B7BAE3"/>
<path d="M86.2539 64H77.2539C77.2539 62.9111 77.2539 56.0961 77.2539 55C77.754 55.5001 85.7538 63.4999 86.2539 64Z" fill="#B7BAE3"/>
<path d="M52.2539 55H69.2539V64L61.2539 65L52.2539 55Z" fill="#B7BAE3"/>
<path d="M61.2539 80H69.2539V89H61.2539L60.2539 83L61.2539 80Z" fill="#212C52"/>
<path d="M61.2539 81L52.2539 80V55L61.2539 64V81Z" fill="#615F82"/>
<path d="M77.2539 64V80H69.2539L68.2539 72L69.2539 64C70.2218 64 76.2797 64 77.2539 64Z" fill="#212C52"/>
<path d="M69.2539 64V80H61.2539V64H69.2539Z" fill="#212C52"/>
<path d="M61.2539 89L52.2539 80H61.2539V89Z" fill="#615F82"/>
</g>
<g clip-path="url(#clip1_2:586)">
<path d="M52.6016 63C52.6103 63.001 61.5932 63.9991 61.6016 64V89C61.5942 88.9934 52.6083 81.0059 52.6016 81L51.6016 72L52.6016 63Z" fill="#212C52"/>
<path d="M52.6016 80C53.1016 80.5001 61.1015 88.4999 61.6016 89H44.6016L43.6016 84.5L44.6016 79C44.6084 79.0009 52.5948 79.9991 52.6016 80Z" fill="#212C52"/>
<path d="M44.6016 65L43.6016 59.5L44.6016 55C45.5694 55 51.6274 55 52.6016 55V64L44.6016 65Z" fill="#B7BAE3"/>
<path d="M61.6016 64H52.6016C52.6016 62.9111 52.6016 56.0961 52.6016 55C53.1016 55.5001 61.1015 63.4999 61.6016 64Z" fill="#B7BAE3"/>
<path d="M27.6016 55H44.6016V64L36.6016 65L27.6016 55Z" fill="#B7BAE3"/>
<path d="M36.6016 80H44.6016V89H36.6016L35.6016 83L36.6016 80Z" fill="#212C52"/>
<path d="M36.6016 81L27.6016 80V55L36.6016 64V81Z" fill="#615F82"/>
<path d="M52.6016 64V80H44.6016L43.6016 72L44.6016 64C45.5694 64 51.6274 64 52.6016 64Z" fill="#212C52"/>
<path d="M44.6016 64V80H36.6016V64H44.6016Z" fill="#212C52"/>
<path d="M36.6016 89L27.6016 80H36.6016V89Z" fill="#615F82"/>
</g>
<g clip-path="url(#clip2_2:586)">
<path d="M29.4355 63C29.4443 63.001 38.4272 63.9991 38.4355 64V89C38.4281 88.9934 29.4423 81.0059 29.4355 81L28.4355 72L29.4355 63Z" fill="#212C52"/>
<path d="M29.4355 80C29.9356 80.5001 37.9355 88.4999 38.4355 89H21.4355L20.4355 84.5L21.4355 79C21.4423 79.0009 29.4287 79.9991 29.4355 80Z" fill="#212C52"/>
<path d="M21.4355 65L20.4355 59.5L21.4355 55C22.4034 55 28.4613 55 29.4355 55V64L21.4355 65Z" fill="#B7BAE3"/>
<path d="M38.4355 64H29.4355C29.4355 62.9111 29.4355 56.0961 29.4355 55C29.9356 55.5001 37.9355 63.4999 38.4355 64Z" fill="#B7BAE3"/>
<path d="M4.43555 55H21.4355V64L13.4355 65L4.43555 55Z" fill="#B7BAE3"/>
<path d="M13.4355 80H21.4355V89H13.4355L12.4355 83L13.4355 80Z" fill="#212C52"/>
<path d="M13.4355 81L4.43555 80V55L13.4355 64V81Z" fill="#615F82"/>
<path d="M29.4355 64V80H21.4355L20.4355 72L21.4355 64C22.4034 64 28.4613 64 29.4355 64Z" fill="#212C52"/>
<path d="M21.4355 64V80H13.4355V64H21.4355Z" fill="#212C52"/>
<path d="M13.4355 89L4.43555 80H13.4355V89Z" fill="#615F82"/>
</g>
<g clip-path="url(#clip3_2:586)">
<path d="M77.2539 38C77.2626 38.001 86.2456 38.9991 86.2539 39V64C86.2465 63.9934 77.2606 56.0059 77.2539 56L76.2539 47L77.2539 38Z" fill="#212C52"/>
<path d="M77.2539 55C77.754 55.5001 85.7538 63.4999 86.2539 64H69.2539L68.2539 59.5L69.2539 54C69.2607 54.0009 77.2471 54.9991 77.2539 55Z" fill="#212C52"/>
<path d="M69.2539 40L68.2539 34.5L69.2539 30C70.2218 30 76.2797 30 77.2539 30V39L69.2539 40Z" fill="#B7BAE3"/>
<path d="M86.2539 39H77.2539C77.2539 37.9111 77.2539 31.0961 77.2539 30C77.754 30.5001 85.7538 38.4999 86.2539 39Z" fill="#B7BAE3"/>
<path d="M52.2539 30H69.2539V39L61.2539 40L52.2539 30Z" fill="#B7BAE3"/>
<path d="M61.2539 55H69.2539V64H61.2539L60.2539 58L61.2539 55Z" fill="#212C52"/>
<path d="M61.2539 56L52.2539 55V30L61.2539 39V56Z" fill="#615F82"/>
<path d="M77.2539 39V55H69.2539L68.2539 47L69.2539 39C70.2218 39 76.2797 39 77.2539 39Z" fill="#212C52"/>
<path d="M69.2539 39V55H61.2539V39H69.2539Z" fill="#212C52"/>
<path d="M61.2539 64L52.2539 55H61.2539V64Z" fill="#615F82"/>
</g>
<g clip-path="url(#clip4_2:586)">
<path d="M53.0762 38C53.0849 38.001 62.0678 38.9991 62.0762 39V64C62.0688 63.9934 53.0829 56.0059 53.0762 56L52.0762 47L53.0762 38Z" fill="#212C52"/>
<path d="M53.0762 55C53.5762 55.5001 61.5761 63.4999 62.0762 64H45.0762L44.0762 59.5L45.0762 54C45.083 54.0009 53.0694 54.9991 53.0762 55Z" fill="#212C52"/>
<path d="M45.0762 40L44.0762 34.5L45.0762 30C46.044 30 52.102 30 53.0762 30V39L45.0762 40Z" fill="#B7BAE3"/>
<path d="M62.0762 39H53.0762C53.0762 37.9111 53.0762 31.0961 53.0762 30C53.5762 30.5001 61.5761 38.4999 62.0762 39Z" fill="#B7BAE3"/>
<path d="M28.0762 30H45.0762V39L37.0762 40L28.0762 30Z" fill="#B7BAE3"/>
<path d="M37.0762 55H45.0762V64H37.0762L36.0762 58L37.0762 55Z" fill="#212C52"/>
<path d="M37.0762 56L28.0762 55V30L37.0762 39V56Z" fill="#615F82"/>
<path d="M53.0762 39V55H45.0762L44.0762 47L45.0762 39C46.044 39 52.102 39 53.0762 39Z" fill="#212C52"/>
<path d="M45.0762 39V55H37.0762V39H45.0762Z" fill="#212C52"/>
<path d="M37.0762 64L28.0762 55H37.0762V64Z" fill="#615F82"/>
</g>
<g clip-path="url(#clip5_2:586)">
<path d="M48.0824 28.9838C42.2211 28.9838 37.4696 24.0626 37.4696 17.9919C37.4696 11.9212 42.2211 7 48.0824 7C53.9438 7 58.6953 11.9212 58.6953 17.9919C58.6953 24.0626 53.9438 28.9838 48.0824 28.9838Z" fill="#C7D5FF"/>
<path d="M48.0824 28.9838C42.2211 28.9838 37.4696 24.0626 37.4696 17.9919C37.4696 11.9212 42.2211 7 48.0824 7C53.9438 7 58.6953 11.9212 58.6953 17.9919C58.6953 24.0626 53.9438 28.9838 48.0824 28.9838Z" fill="#3FCAE1"/>
<path d="M48.082 7V7.22271C43.2443 8.24638 39.6049 12.6789 39.6049 17.9919C39.6049 23.3049 43.2443 27.7374 48.082 28.7611V28.9838C42.2207 28.9838 37.4692 24.0626 37.4692 17.9919C37.4692 11.9212 42.2207 7 48.082 7Z" fill="#3CC0D7"/>
<path d="M37.4699 17.9321C37.4913 19.6913 39.7668 21.2179 43.1021 21.9916C43.88 26.0846 45.8163 28.984 48.082 28.984C42.2207 28.984 37.4692 24.0628 37.4692 17.9921C37.4692 17.9721 37.4698 17.9521 37.4699 17.9321Z" fill="#3CC0D7"/>
<path d="M37.4699 17.9321C37.4836 19.0606 38.4249 20.0933 39.9784 20.893C40.8224 24.0961 43.0301 26.7165 45.9153 28.0433C46.5775 28.648 47.3107 28.984 48.082 28.984C42.2207 28.984 37.4692 24.0628 37.4692 17.9921C37.4692 17.9721 37.4698 17.9521 37.4699 17.9321Z" fill="#27B0C7"/>
<path d="M53.0624 21.9912C56.3975 21.2175 58.6729 19.6911 58.6946 17.9321C58.6947 17.952 58.6953 17.9718 58.6953 17.9917C58.6953 24.0624 53.9438 28.9836 48.0824 28.9836C50.3482 28.9836 52.2845 26.0842 53.0624 21.9912Z" fill="#3CC0D7"/>
<path d="M53.4258 17.9919C53.4258 19.403 53.2963 20.7519 53.0608 21.9914C51.5756 22.3359 49.8808 22.5314 48.0808 22.5314C46.2809 22.5314 44.5861 22.3359 43.1009 21.9914C42.8654 20.7519 42.7359 19.403 42.7359 17.9919C42.7359 11.9212 45.1289 7 48.0808 7C51.0327 7 53.4258 11.9212 53.4258 17.9919Z" fill="#50D8EF"/>
<path d="M43.1027 21.9912C44.5878 22.3357 46.2827 22.5312 48.0826 22.5312C49.8825 22.5312 51.5774 22.3357 53.0625 21.9912C52.2847 26.0842 50.3483 28.9837 48.0826 28.9837C45.8168 28.9837 43.8805 26.0842 43.1027 21.9912Z" fill="#43CEE6"/>
</g>
<defs>
<clipPath id="clip0_2:586">
<rect width="34" height="34" fill="white" transform="matrix(-1 0 0 1 86.2539 55)"/>
</clipPath>
<clipPath id="clip1_2:586">
<rect width="34" height="34" fill="white" transform="matrix(-1 0 0 1 61.6016 55)"/>
</clipPath>
<clipPath id="clip2_2:586">
<rect width="34" height="34" fill="white" transform="matrix(-1 0 0 1 38.4355 55)"/>
</clipPath>
<clipPath id="clip3_2:586">
<rect width="34" height="34" fill="white" transform="matrix(-1 0 0 1 86.2539 30)"/>
</clipPath>
<clipPath id="clip4_2:586">
<rect width="34" height="34" fill="white" transform="matrix(-1 0 0 1 62.0762 30)"/>
</clipPath>
<clipPath id="clip5_2:586">
<rect width="21.2257" height="21.9838" fill="white" transform="matrix(-1 0 0 1 58.6953 7)"/>
</clipPath>
</defs>
</svg>
