<svg width="90" height="90" viewBox="0 0 90 90" fill="none" xmlns="http://www.w3.org/2000/svg">
<g clip-path="url(#clip0_2:717)">
<path d="M71.3201 67.8066C71.3276 67.8075 78.9929 68.6592 79 68.66V89.993C78.9937 89.9874 71.3258 83.1715 71.3201 83.1664L70.4668 75.4865L71.3201 67.8066Z" fill="#212C52"/>
<path d="M71.3201 82.3133C71.7468 82.74 78.5733 89.5665 79 89.9932H64.4935L63.6402 86.1532L64.4935 81.46C64.4993 81.4607 71.3143 82.3125 71.3201 82.3133Z" fill="#212C52"/>
<path d="M64.4937 69.5132L63.6404 64.8199L64.4937 60.98C65.3196 60.98 70.489 60.98 71.3203 60.98V68.6599L64.4937 69.5132Z" fill="#B7BAE3"/>
<path d="M79 68.6599H71.3201C71.3201 67.7307 71.3201 61.9153 71.3201 60.98C71.7468 61.4067 78.5733 68.2332 79 68.6599Z" fill="#B7BAE3"/>
<path d="M49.9877 60.98H64.4941V68.6599L57.6676 69.5132L49.9877 60.98Z" fill="#B7BAE3"/>
<path d="M57.6676 82.3135H64.4941V89.9934H57.6676L56.8142 84.8734L57.6676 82.3135Z" fill="#212C52"/>
<path d="M57.668 83.1664L49.9881 82.313V60.98L57.668 68.6599V83.1664Z" fill="#615F82"/>
<path d="M71.3203 68.6597V82.3128H64.4937L63.6404 75.4862L64.4937 68.6597C65.3196 68.6597 70.489 68.6597 71.3203 68.6597Z" fill="#212C52"/>
<path d="M64.4941 68.6597V82.3128H57.6676V68.6597H64.4941Z" fill="#212C52"/>
<path d="M57.668 89.9934L49.9881 82.3135H57.668V89.9934Z" fill="#615F82"/>
</g>
<g clip-path="url(#clip1_2:717)">
<path d="M50.283 67.8066C50.2904 67.8075 57.9558 68.6592 57.9629 68.66V89.993C57.9566 89.9874 50.2887 83.1715 50.283 83.1664L49.4297 75.4865L50.283 67.8066Z" fill="#212C52"/>
<path d="M50.283 82.3133C50.7097 82.74 57.5362 89.5665 57.9629 89.9932H43.4564L42.6031 86.1532L43.4564 81.46C43.4622 81.4607 50.2772 82.3125 50.283 82.3133Z" fill="#212C52"/>
<path d="M43.4566 69.5132L42.6033 64.8199L43.4566 60.98C44.2825 60.98 49.4519 60.98 50.2832 60.98V68.6599L43.4566 69.5132Z" fill="#B7BAE3"/>
<path d="M57.9629 68.6599H50.283C50.283 67.7307 50.283 61.9153 50.283 60.98C50.7097 61.4067 57.5362 68.2332 57.9629 68.6599Z" fill="#B7BAE3"/>
<path d="M28.9506 60.98H43.457V68.6599L36.6305 69.5132L28.9506 60.98Z" fill="#B7BAE3"/>
<path d="M36.6305 82.3135H43.457V89.9934H36.6305L35.7771 84.8734L36.6305 82.3135Z" fill="#212C52"/>
<path d="M36.6309 83.1664L28.951 82.313V60.98L36.6309 68.6599V83.1664Z" fill="#615F82"/>
<path d="M50.2832 68.6597V82.3128H43.4566L42.6033 75.4862L43.4566 68.6597C44.2825 68.6597 49.4519 68.6597 50.2832 68.6597Z" fill="#212C52"/>
<path d="M43.457 68.6597V82.3128H36.6304V68.6597H43.457Z" fill="#212C52"/>
<path d="M36.6309 89.9934L28.951 82.3135H36.6309V89.9934Z" fill="#615F82"/>
</g>
<g clip-path="url(#clip2_2:717)">
<path d="M30.5154 67.8066C30.5229 67.8075 38.1882 68.6592 38.1953 68.66V89.993C38.189 89.9874 30.5212 83.1715 30.5154 83.1664L29.6621 75.4865L30.5154 67.8066Z" fill="#212C52"/>
<path d="M30.5154 82.3133C30.9421 82.74 37.7686 89.5665 38.1953 89.9932H23.6888L22.8355 86.1532L23.6888 81.46C23.6946 81.4607 30.5096 82.3125 30.5154 82.3133Z" fill="#212C52"/>
<path d="M23.689 69.5132L22.8357 64.8199L23.689 60.98C24.5149 60.98 29.6843 60.98 30.5156 60.98V68.6599L23.689 69.5132Z" fill="#B7BAE3"/>
<path d="M38.1953 68.6599H30.5154C30.5154 67.7307 30.5154 61.9153 30.5154 60.98C30.9421 61.4067 37.7686 68.2332 38.1953 68.6599Z" fill="#B7BAE3"/>
<path d="M9.18298 60.98H23.6895V68.6599L16.8629 69.5132L9.18298 60.98Z" fill="#B7BAE3"/>
<path d="M16.8629 82.3135H23.6895V89.9934H16.8629L16.0096 84.8734L16.8629 82.3135Z" fill="#212C52"/>
<path d="M16.8633 83.1664L9.18339 82.313V60.98L16.8633 68.6599V83.1664Z" fill="#615F82"/>
<path d="M30.5156 68.6597V82.3128H23.689L22.8357 75.4862L23.689 68.6597C24.5149 68.6597 29.6843 68.6597 30.5156 68.6597Z" fill="#212C52"/>
<path d="M23.6895 68.6597V82.3128H16.8629V68.6597H23.6895Z" fill="#212C52"/>
<path d="M16.8633 89.9934L9.18339 82.3135H16.8633V89.9934Z" fill="#615F82"/>
</g>
<g clip-path="url(#clip3_2:717)">
<path d="M71.3201 46.4736C71.3276 46.4745 78.9929 47.3262 79 47.327V68.66C78.9937 68.6544 71.3258 61.8385 71.3201 61.8334L70.4668 54.1535L71.3201 46.4736Z" fill="#212C52"/>
<path d="M71.3201 60.9803C71.7468 61.407 78.5733 68.2335 79 68.6602H64.4935L63.6402 64.8202L64.4935 60.127C64.4993 60.1277 71.3143 60.9795 71.3201 60.9803Z" fill="#212C52"/>
<path d="M64.4937 48.1802L63.6404 43.4869L64.4937 39.647C65.3196 39.647 70.489 39.647 71.3203 39.647V47.3269L64.4937 48.1802Z" fill="#B7BAE3"/>
<path d="M79 47.3269H71.3201C71.3201 46.3977 71.3201 40.5823 71.3201 39.647C71.7468 40.0737 78.5733 46.9002 79 47.3269Z" fill="#B7BAE3"/>
<path d="M49.9877 39.647H64.4941V47.3269L57.6676 48.1802L49.9877 39.647Z" fill="#B7BAE3"/>
<path d="M57.6676 60.9805H64.4941V68.6604H57.6676L56.8142 63.5404L57.6676 60.9805Z" fill="#212C52"/>
<path d="M57.668 61.8334L49.9881 60.98V39.647L57.668 47.3269V61.8334Z" fill="#615F82"/>
<path d="M71.3203 47.3267V60.9798H64.4937L63.6404 54.1532L64.4937 47.3267C65.3196 47.3267 70.489 47.3267 71.3203 47.3267Z" fill="#212C52"/>
<path d="M64.4941 47.3267V60.9798H57.6676V47.3267H64.4941Z" fill="#212C52"/>
<path d="M57.668 68.6604L49.9881 60.9805H57.668V68.6604Z" fill="#615F82"/>
</g>
<path d="M71.3201 25.9937C71.3276 25.9945 78.9929 26.8462 79 26.847V48.18C78.9937 48.1744 71.3258 41.3585 71.3201 41.3535L70.4668 33.6736L71.3201 25.9937Z" fill="#212C52"/>
<path d="M71.3201 40.5003C71.7468 40.927 78.5733 47.7535 79 48.1802H64.4935L63.6402 44.3402L64.4935 39.647C64.4993 39.6477 71.3143 40.4996 71.3201 40.5003Z" fill="#212C52"/>
<path d="M64.4937 27.7002L63.6404 23.0069L64.4937 19.167C65.3196 19.167 70.489 19.167 71.3203 19.167V26.8469L64.4937 27.7002Z" fill="#B7BAE3"/>
<path d="M79 26.8469H71.3201C71.3201 25.9177 71.3201 20.1023 71.3201 19.167C71.7468 19.5937 78.5733 26.4202 79 26.8469Z" fill="#B7BAE3"/>
<path d="M49.9877 19.167H64.4941V26.8469L57.6676 27.7002L49.9877 19.167Z" fill="#B7BAE3"/>
<path d="M57.6676 40.5005H64.4941V48.1804H57.6676L56.8142 43.0605L57.6676 40.5005Z" fill="#212C52"/>
<path d="M57.668 41.3534L49.9881 40.5001V19.167L57.668 26.8469V41.3534Z" fill="#615F82"/>
<path d="M71.3203 26.8467V40.4998H64.4937L63.6404 33.6733L64.4937 26.8467C65.3196 26.8467 70.489 26.8467 71.3203 26.8467Z" fill="#212C52"/>
<path d="M64.4941 26.8467V40.4998H57.6676V26.8467H64.4941Z" fill="#212C52"/>
<path d="M57.668 48.1804L49.9881 40.5005H57.668V48.1804Z" fill="#615F82"/>
<g clip-path="url(#clip4_2:717)">
<path d="M50.6892 46.4736C50.6967 46.4745 58.362 47.3262 58.3691 47.327V68.66C58.3628 68.6544 50.695 61.8385 50.6892 61.8334L49.8359 54.1535L50.6892 46.4736Z" fill="#212C52"/>
<path d="M50.6892 60.9803C51.116 61.407 57.9424 68.2335 58.3691 68.6602H43.8627L43.0093 64.8202L43.8627 60.127C43.8685 60.1277 50.6834 60.9795 50.6892 60.9803Z" fill="#212C52"/>
<path d="M43.8629 48.1802L43.0095 43.4869L43.8629 39.647C44.6888 39.647 49.8581 39.647 50.6895 39.647V47.3269L43.8629 48.1802Z" fill="#B7BAE3"/>
<path d="M58.3691 47.3269H50.6892C50.6892 46.3977 50.6892 40.5823 50.6892 39.647C51.116 40.0737 57.9424 46.9002 58.3691 47.3269Z" fill="#B7BAE3"/>
<path d="M29.3568 39.647H43.8633V47.3269L37.0367 48.1802L29.3568 39.647Z" fill="#B7BAE3"/>
<path d="M37.0367 60.9805H43.8633V68.6604H37.0367L36.1834 63.5404L37.0367 60.9805Z" fill="#212C52"/>
<path d="M37.0371 61.8334L29.3572 60.98V39.647L37.0371 47.3269V61.8334Z" fill="#615F82"/>
<path d="M50.6895 47.3267V60.9798H43.8629L43.0095 54.1532L43.8629 47.3267C44.6888 47.3267 49.8581 47.3267 50.6895 47.3267Z" fill="#212C52"/>
<path d="M43.8633 47.3267V60.9798H37.0367V47.3267H43.8633Z" fill="#212C52"/>
<path d="M37.0371 68.6604L29.3572 60.9805H37.0371V68.6604Z" fill="#615F82"/>
</g>
<g clip-path="url(#clip5_2:717)">
<path d="M63.6411 19.6929C58.6395 19.6929 54.5849 15.4935 54.5849 10.3132C54.5849 5.133 58.6395 0.933594 63.6411 0.933594C68.6427 0.933594 72.6973 5.133 72.6973 10.3132C72.6973 15.4935 68.6427 19.6929 63.6411 19.6929Z" fill="#C7D5FF"/>
<path d="M63.6411 19.6929C58.6395 19.6929 54.5849 15.4935 54.5849 10.3132C54.5849 5.133 58.6395 0.933594 63.6411 0.933594C68.6427 0.933594 72.6973 5.133 72.6973 10.3132C72.6973 15.4935 68.6427 19.6929 63.6411 19.6929Z" fill="#3FCAE1"/>
<path d="M63.6406 0.933594V1.12364C59.5125 1.99716 56.4069 5.77953 56.4069 10.3132C56.4069 14.8469 59.5125 18.6293 63.6406 19.5028V19.6929C58.639 19.6929 54.5844 15.4935 54.5844 10.3132C54.5844 5.133 58.639 0.933594 63.6406 0.933594Z" fill="#3CC0D7"/>
<path d="M54.5851 10.2622C54.6033 11.7634 56.545 13.066 59.3911 13.7262C60.0549 17.2189 61.7072 19.693 63.6406 19.693C58.639 19.693 54.5844 15.4936 54.5844 10.3134C54.5844 10.2963 54.585 10.2793 54.5851 10.2622Z" fill="#3CC0D7"/>
<path d="M54.5851 10.2622C54.5968 11.2252 55.3999 12.1064 56.7256 12.7888C57.4458 15.5221 59.3297 17.7581 61.7917 18.8903C62.3568 19.4063 62.9824 19.693 63.6406 19.693C58.639 19.693 54.5844 15.4936 54.5844 10.3134C54.5844 10.2963 54.585 10.2793 54.5851 10.2622Z" fill="#27B0C7"/>
<path d="M67.8905 13.7259C70.7365 13.0657 72.6781 11.7632 72.6966 10.2622C72.6967 10.2792 72.6973 10.2961 72.6973 10.3131C72.6973 15.4933 68.6427 19.6927 63.6411 19.6927C65.5745 19.6927 67.2268 17.2185 67.8905 13.7259Z" fill="#3CC0D7"/>
<path d="M68.2012 10.3132C68.2012 11.5173 68.0907 12.6684 67.8897 13.7261C66.6224 14.0201 65.1761 14.1869 63.6402 14.1869C62.1043 14.1869 60.658 14.0201 59.3907 13.7261C59.1897 12.6684 59.0792 11.5173 59.0792 10.3132C59.0792 5.133 61.1213 0.933594 63.6402 0.933594C66.1591 0.933594 68.2012 5.133 68.2012 10.3132Z" fill="#50D8EF"/>
<path d="M59.3917 13.7261C60.659 14.0201 62.1053 14.1869 63.6411 14.1869C65.177 14.1869 66.6233 14.0201 67.8906 13.7261C67.2269 17.2187 65.5746 19.6929 63.6411 19.6929C61.7077 19.6929 60.0554 17.2187 59.3917 13.7261Z" fill="#43CEE6"/>
</g>
<defs>
<clipPath id="clip0_2:717">
<rect width="29.013" height="29.013" fill="white" transform="matrix(-1 0 0 1 79 60.98)"/>
</clipPath>
<clipPath id="clip1_2:717">
<rect width="29.013" height="29.013" fill="white" transform="matrix(-1 0 0 1 57.9629 60.98)"/>
</clipPath>
<clipPath id="clip2_2:717">
<rect width="29.013" height="29.013" fill="white" transform="matrix(-1 0 0 1 38.1953 60.98)"/>
</clipPath>
<clipPath id="clip3_2:717">
<rect width="29.013" height="29.013" fill="white" transform="matrix(-1 0 0 1 79 39.647)"/>
</clipPath>
<clipPath id="clip4_2:717">
<rect width="29.013" height="29.013" fill="white" transform="matrix(-1 0 0 1 58.3691 39.647)"/>
</clipPath>
<clipPath id="clip5_2:717">
<rect width="18.1124" height="18.7593" fill="white" transform="matrix(-1 0 0 1 72.6973 0.933594)"/>
</clipPath>
</defs>
</svg>
