<svg width="90" height="90" viewBox="0 0 90 90" fill="none" xmlns="http://www.w3.org/2000/svg">
<g clip-path="url(#clip0_2:561)">
<path d="M71.9074 46.6943C71.9216 46.696 86.5353 48.3196 86.5488 48.3212V88.9919C86.5368 88.9812 71.9183 75.9869 71.9074 75.9773L70.2805 61.3358L71.9074 46.6943Z" fill="#212C52"/>
<path d="M71.9074 74.3505C72.7209 75.164 85.7353 88.1784 86.5488 88.9919H58.8927L57.2659 81.6712L58.8927 72.7236C58.9038 72.725 71.8963 74.3491 71.9074 74.3505Z" fill="#212C52"/>
<path d="M58.8916 49.948L57.2648 41.0004L58.8916 33.6797C60.4662 33.6797 70.3214 33.6797 71.9062 33.6797V48.3212L58.8916 49.948Z" fill="#B7BAE3"/>
<path d="M86.5488 48.3212H71.9074C71.9074 46.5498 71.9074 35.4628 71.9074 33.6797C72.7209 34.4932 85.7353 47.5076 86.5488 48.3212Z" fill="#B7BAE3"/>
<path d="M31.2365 33.6797H58.8926V48.3212L45.8779 49.948L31.2365 33.6797Z" fill="#B7BAE3"/>
<path d="M45.8779 74.3506H58.8926V88.992H45.8779L44.2511 79.2311L45.8779 74.3506Z" fill="#212C52"/>
<path d="M45.8789 75.9773L31.2374 74.3504V33.6797L45.8789 48.3212V75.9773Z" fill="#615F82"/>
<path d="M71.9062 48.3213V74.3506H58.8916L57.2648 61.3359L58.8916 48.3213C60.4662 48.3213 70.3214 48.3213 71.9062 48.3213Z" fill="#212C52"/>
<path d="M58.8926 48.3213V74.3506H45.8779V48.3213H58.8926Z" fill="#212C52"/>
<path d="M45.8789 88.992L31.2374 74.3506H45.8789V88.992Z" fill="#615F82"/>
</g>
<g clip-path="url(#clip1_2:561)">
<path d="M20.5159 88.9924C10.9805 88.9924 3.25058 80.9864 3.25058 71.1105C3.25058 61.2345 10.9805 53.2285 20.5159 53.2285C30.0513 53.2285 37.7812 61.2345 37.7812 71.1105C37.7812 80.9864 30.0513 88.9924 20.5159 88.9924Z" fill="#C7D5FF"/>
<path d="M20.5159 88.9924C10.9805 88.9924 3.25058 80.9864 3.25058 71.1105C3.25058 61.2345 10.9805 53.2285 20.5159 53.2285C30.0513 53.2285 37.7812 61.2345 37.7812 71.1105C37.7812 80.9864 30.0513 88.9924 20.5159 88.9924Z" fill="#3FCAE1"/>
<path d="M20.5156 53.2285V53.5908C12.6455 55.2562 6.72474 62.4671 6.72474 71.1105C6.72474 79.7538 12.6455 86.9648 20.5156 88.6301V88.9924C10.9802 88.9924 3.25029 80.9864 3.25029 71.1105C3.25029 61.2345 10.9802 53.2285 20.5156 53.2285Z" fill="#3CC0D7"/>
<path d="M3.25151 71.0127C3.28631 73.8746 6.9881 76.358 12.4141 77.6167C13.6796 84.2753 16.8296 88.9922 20.5156 88.9922C10.9802 88.9922 3.25029 80.9862 3.25029 71.1103C3.25029 71.0777 3.25131 71.0452 3.25151 71.0127Z" fill="#3CC0D7"/>
<path d="M3.25151 71.0127C3.27383 72.8485 4.80505 74.5286 7.3324 75.8296C8.70546 81.0405 12.297 85.3033 16.9907 87.4618C18.0681 88.4456 19.2608 88.9922 20.5156 88.9922C10.9802 88.9922 3.25029 80.9862 3.25029 71.1103C3.25029 71.0777 3.25131 71.0452 3.25151 71.0127Z" fill="#27B0C7"/>
<path d="M28.6174 77.6171C34.0431 76.3584 37.7448 73.8753 37.78 71.0137C37.7802 71.046 37.7812 71.0782 37.7812 71.1106C37.7812 80.9866 30.0513 88.9926 20.5159 88.9926C24.2019 88.9926 27.352 84.2757 28.6174 77.6171Z" fill="#3CC0D7"/>
<path d="M29.209 71.1105C29.209 73.4061 28.9984 75.6005 28.6152 77.6169C26.1991 78.1774 23.4418 78.4954 20.5137 78.4954C17.5855 78.4954 14.8282 78.1774 12.4122 77.6169C12.029 75.6005 11.8183 73.4061 11.8183 71.1105C11.8183 61.2345 15.7114 53.2285 20.5137 53.2285C25.3159 53.2285 29.209 61.2345 29.209 71.1105Z" fill="#50D8EF"/>
<path d="M12.4142 77.6167C14.8303 78.1772 17.5876 78.4952 20.5157 78.4952C23.4438 78.4952 26.2011 78.1772 28.6172 77.6167C27.3518 84.2753 24.2017 88.9922 20.5157 88.9922C16.8297 88.9922 13.6796 84.2753 12.4142 77.6167Z" fill="#43CEE6"/>
</g>
<defs>
<clipPath id="clip0_2:561">
<rect width="55.3122" height="55.3122" fill="white" transform="matrix(-1 0 0 1 86.5488 33.6797)"/>
</clipPath>
<clipPath id="clip1_2:561">
<rect width="34.5307" height="35.7639" fill="white" transform="matrix(-1 0 0 1 37.7812 53.2285)"/>
</clipPath>
</defs>
</svg>
