<svg width="90" height="90" viewBox="0 0 90 90" fill="none" xmlns="http://www.w3.org/2000/svg">
<g clip-path="url(#clip0_2:658)">
<path d="M74.8301 64.6177C74.8383 64.6186 83.2598 65.5543 83.2676 65.5552V88.9927C83.2606 88.9865 74.8364 81.4982 74.8301 81.4927L73.8926 73.0552L74.8301 64.6177Z" fill="#212C52"/>
<path d="M74.8301 80.5552C75.2989 81.024 82.7988 88.5239 83.2676 88.9927H67.3301L66.3926 84.7739L67.3301 79.6177C67.3365 79.6185 74.8237 80.5544 74.8301 80.5552Z" fill="#212C52"/>
<path d="M67.3301 66.4927L66.3926 61.3364L67.3301 57.1177C68.2375 57.1177 73.9168 57.1177 74.8301 57.1177V65.5552L67.3301 66.4927Z" fill="#B7BAE3"/>
<path d="M83.2676 65.5552H74.8301C74.8301 64.5344 74.8301 58.1452 74.8301 57.1177C75.2989 57.5865 82.7988 65.0864 83.2676 65.5552Z" fill="#B7BAE3"/>
<path d="M51.3926 57.1177H67.3301V65.5552L59.8301 66.4927L51.3926 57.1177Z" fill="#B7BAE3"/>
<path d="M59.8301 80.5552H67.3301V88.9927H59.8301L58.8926 83.3677L59.8301 80.5552Z" fill="#212C52"/>
<path d="M59.8301 81.4927L51.3926 80.5552V57.1177L59.8301 65.5552V81.4927Z" fill="#615F82"/>
<path d="M74.8301 65.5552V80.5552H67.3301L66.3926 73.0552L67.3301 65.5552C68.2375 65.5552 73.9168 65.5552 74.8301 65.5552Z" fill="#212C52"/>
<path d="M67.3301 65.5552V80.5552H59.8301V65.5552H67.3301Z" fill="#212C52"/>
<path d="M59.8301 88.9927L51.3926 80.5552H59.8301V88.9927Z" fill="#615F82"/>
</g>
<g clip-path="url(#clip1_2:658)">
<path d="M51.7187 64.6177C51.7269 64.6186 60.1484 65.5543 60.1562 65.5552V88.9927C60.1493 88.9865 51.7251 81.4982 51.7187 81.4927L50.7812 73.0552L51.7187 64.6177Z" fill="#212C52"/>
<path d="M51.7187 80.5552C52.1876 81.024 59.6874 88.5239 60.1562 88.9927H44.2187L43.2812 84.7739L44.2187 79.6177C44.2251 79.6185 51.7124 80.5544 51.7187 80.5552Z" fill="#212C52"/>
<path d="M44.2187 66.4927L43.2812 61.3364L44.2187 57.1177C45.1261 57.1177 50.8054 57.1177 51.7188 57.1177V65.5552L44.2187 66.4927Z" fill="#B7BAE3"/>
<path d="M60.1562 65.5552H51.7187C51.7187 64.5344 51.7187 58.1452 51.7187 57.1177C52.1876 57.5865 59.6874 65.0864 60.1562 65.5552Z" fill="#B7BAE3"/>
<path d="M28.2812 57.1177H44.2188V65.5552L36.7187 66.4927L28.2812 57.1177Z" fill="#B7BAE3"/>
<path d="M36.7187 80.5552H44.2188V88.9927H36.7187L35.7812 83.3677L36.7187 80.5552Z" fill="#212C52"/>
<path d="M36.7188 81.4927L28.2813 80.5552V57.1177L36.7188 65.5552V81.4927Z" fill="#615F82"/>
<path d="M51.7188 65.5552V80.5552H44.2187L43.2812 73.0552L44.2187 65.5552C45.1261 65.5552 50.8054 65.5552 51.7188 65.5552Z" fill="#212C52"/>
<path d="M44.2188 65.5552V80.5552H36.7187V65.5552H44.2188Z" fill="#212C52"/>
<path d="M36.7188 88.9927L28.2813 80.5552H36.7188V88.9927Z" fill="#615F82"/>
</g>
<g clip-path="url(#clip2_2:658)">
<path d="M30 64.6177C30.0082 64.6186 38.4297 65.5543 38.4375 65.5552V88.9927C38.4306 88.9865 30.0063 81.4982 30 81.4927L29.0625 73.0552L30 64.6177Z" fill="#212C52"/>
<path d="M30 80.5552C30.4688 81.024 37.9687 88.5239 38.4375 88.9927H22.5L21.5625 84.7739L22.5 79.6177C22.5064 79.6185 29.9936 80.5544 30 80.5552Z" fill="#212C52"/>
<path d="M22.5 66.4927L21.5625 61.3364L22.5 57.1177C23.4074 57.1177 29.0867 57.1177 30 57.1177V65.5552L22.5 66.4927Z" fill="#B7BAE3"/>
<path d="M38.4375 65.5552H30C30 64.5344 30 58.1452 30 57.1177C30.4688 57.5865 37.9687 65.0864 38.4375 65.5552Z" fill="#B7BAE3"/>
<path d="M6.56251 57.1177H22.5V65.5552L15 66.4927L6.56251 57.1177Z" fill="#B7BAE3"/>
<path d="M15 80.5552H22.5V88.9927H15L14.0625 83.3677L15 80.5552Z" fill="#212C52"/>
<path d="M15 81.4927L6.56251 80.5552V57.1177L15 65.5552V81.4927Z" fill="#615F82"/>
<path d="M30 65.5552V80.5552H22.5L21.5625 73.0552L22.5 65.5552C23.4074 65.5552 29.0867 65.5552 30 65.5552Z" fill="#212C52"/>
<path d="M22.5 65.5552V80.5552H15V65.5552H22.5Z" fill="#212C52"/>
<path d="M15 88.9927L6.56251 80.5552H15V88.9927Z" fill="#615F82"/>
</g>
<g clip-path="url(#clip3_2:658)">
<path d="M74.8301 41.1802C74.8383 41.1811 83.2598 42.1168 83.2676 42.1177V65.5552C83.2606 65.549 74.8364 58.0607 74.8301 58.0552L73.8926 49.6177L74.8301 41.1802Z" fill="#212C52"/>
<path d="M74.8301 57.1177C75.2989 57.5865 82.7988 65.0864 83.2676 65.5552H67.3301L66.3926 61.3364L67.3301 56.1802C67.3365 56.181 74.8237 57.1169 74.8301 57.1177Z" fill="#212C52"/>
<path d="M67.3301 43.0552L66.3926 37.8989L67.3301 33.6802C68.2375 33.6802 73.9168 33.6802 74.8301 33.6802V42.1177L67.3301 43.0552Z" fill="#B7BAE3"/>
<path d="M83.2676 42.1177H74.8301C74.8301 41.0969 74.8301 34.7077 74.8301 33.6802C75.2989 34.149 82.7988 41.6489 83.2676 42.1177Z" fill="#B7BAE3"/>
<path d="M51.3926 33.6802H67.3301V42.1177L59.8301 43.0552L51.3926 33.6802Z" fill="#B7BAE3"/>
<path d="M59.8301 57.1177H67.3301V65.5552H59.8301L58.8926 59.9302L59.8301 57.1177Z" fill="#212C52"/>
<path d="M59.8301 58.0552L51.3926 57.1177V33.6802L59.8301 42.1177V58.0552Z" fill="#615F82"/>
<path d="M74.8301 42.1177V57.1177H67.3301L66.3926 49.6177L67.3301 42.1177C68.2375 42.1177 73.9168 42.1177 74.8301 42.1177Z" fill="#212C52"/>
<path d="M67.3301 42.1177V57.1177H59.8301V42.1177H67.3301Z" fill="#212C52"/>
<path d="M59.8301 65.5552L51.3926 57.1177H59.8301V65.5552Z" fill="#615F82"/>
</g>
<g clip-path="url(#clip4_2:658)">
<path d="M38.2184 54.665C32.7234 54.665 28.2688 50.0513 28.2688 44.3601C28.2688 38.6688 32.7234 34.0552 38.2184 34.0552C43.7134 34.0552 48.168 38.6688 48.168 44.3601C48.168 50.0513 43.7134 54.665 38.2184 54.665Z" fill="#C7D5FF"/>
<path d="M38.2184 54.665C32.7234 54.665 28.2688 50.0513 28.2688 44.3601C28.2688 38.6688 32.7234 34.0552 38.2184 34.0552C43.7134 34.0552 48.168 38.6688 48.168 44.3601C48.168 50.0513 43.7134 54.665 38.2184 54.665Z" fill="#3FCAE1"/>
<path d="M38.2188 34.0552V34.264C33.6834 35.2237 30.2714 39.3792 30.2714 44.3601C30.2714 49.341 33.6834 53.4965 38.2188 54.4562V54.665C32.7238 54.665 28.2692 50.0513 28.2692 44.3601C28.2692 38.6688 32.7238 34.0552 38.2188 34.0552Z" fill="#3CC0D7"/>
<path d="M28.2699 44.3037C28.2899 45.9529 30.4232 47.3841 33.5501 48.1094C34.2793 51.9466 36.0946 54.6649 38.2188 54.6649C32.7238 54.6649 28.2692 50.0512 28.2692 44.3599C28.2692 44.3411 28.2698 44.3225 28.2699 44.3037Z" fill="#3CC0D7"/>
<path d="M28.2699 44.3037C28.2827 45.3617 29.1651 46.3298 30.6216 47.0796C31.4129 50.0825 33.4826 52.539 36.1874 53.7829C36.8083 54.3498 37.4956 54.6649 38.2188 54.6649C32.7238 54.6649 28.2692 50.0512 28.2692 44.3599C28.2692 44.3411 28.2698 44.3225 28.2699 44.3037Z" fill="#27B0C7"/>
<path d="M42.8871 48.1096C46.0138 47.3842 48.1469 45.9533 48.1673 44.3042C48.1674 44.3228 48.168 44.3414 48.168 44.3601C48.168 50.0513 43.7134 54.665 38.2184 54.665C40.3426 54.665 42.1578 51.9467 42.8871 48.1096Z" fill="#3CC0D7"/>
<path d="M43.2285 44.3601C43.2285 45.683 43.1071 46.9475 42.8863 48.1096C41.494 48.4326 39.9051 48.6159 38.2176 48.6159C36.5302 48.6159 34.9413 48.4326 33.5489 48.1096C33.3281 46.9475 33.2067 45.683 33.2067 44.3601C33.2067 38.6688 35.4502 34.0552 38.2176 34.0552C40.985 34.0552 43.2285 38.6688 43.2285 44.3601Z" fill="#50D8EF"/>
<path d="M33.5494 48.1094C34.9417 48.4324 36.5307 48.6156 38.218 48.6156C39.9054 48.6156 41.4944 48.4324 42.8867 48.1094C42.1575 51.9465 40.3422 54.6648 38.218 54.6648C36.0939 54.6648 34.2786 51.9465 33.5494 48.1094Z" fill="#43CEE6"/>
</g>
<defs>
<clipPath id="clip0_2:658">
<rect width="31.875" height="31.875" fill="white" transform="matrix(-1 0 0 1 83.2676 57.1177)"/>
</clipPath>
<clipPath id="clip1_2:658">
<rect width="31.875" height="31.875" fill="white" transform="matrix(-1 0 0 1 60.1562 57.1177)"/>
</clipPath>
<clipPath id="clip2_2:658">
<rect width="31.875" height="31.875" fill="white" transform="matrix(-1 0 0 1 38.4375 57.1177)"/>
</clipPath>
<clipPath id="clip3_2:658">
<rect width="31.875" height="31.875" fill="white" transform="matrix(-1 0 0 1 83.2676 33.6802)"/>
</clipPath>
<clipPath id="clip4_2:658">
<rect width="19.8991" height="20.6098" fill="white" transform="matrix(-1 0 0 1 48.168 34.0552)"/>
</clipPath>
</defs>
</svg>
