<svg width="96" height="96" viewBox="0 0 96 96" fill="none" xmlns="http://www.w3.org/2000/svg">
<g clip-path="url(#clip0_598:2530)">
<path d="M70.2761 14.1968V59.584C70.2761 64.593 60.414 75.3803 48.2484 75.3803C36.0828 75.3803 26.2207 64.593 26.2207 59.584V14.1968H70.2761Z" fill="#25A8BF"/>
<path d="M60.6176 14.1968V59.584C60.6176 63.91 53.2614 72.5443 43.4189 74.8193C44.9731 75.1785 46.5888 75.3803 48.248 75.3803C60.4136 75.3803 70.2757 64.593 70.2757 59.584V14.1968H60.6176Z" fill="#1C9CB2"/>
<path d="M48.2484 23.2665C60.4139 23.2665 70.2761 19.2058 70.2761 14.1967C70.2761 9.18762 60.4139 5.12695 48.2484 5.12695C36.0828 5.12695 26.2207 9.18762 26.2207 14.1967C26.2207 19.2058 36.0828 23.2665 48.2484 23.2665Z" fill="#40C4DB"/>
<path d="M70.0378 33.5444L44.0752 44.2391L70.0378 54.9339L96.0001 44.2391L70.0378 33.5444Z" fill="#B7BAE3"/>
<path d="M70.0381 54.8996V87.6073L96.0005 76.9125V44.2388L70.0381 54.8996Z" fill="#615F82"/>
<path d="M86.3428 48.2046V80.8909L96.0007 76.9125V44.2388L86.3428 48.2046Z" fill="#424068"/>
<path d="M44.0752 44.2388L70.0378 54.8996V87.6073L44.0752 76.9125V44.2388Z" fill="#212C52"/>
<path d="M26.2204 90.8728V49.2729L0 80.3496L26.2204 90.8728Z" fill="#CF92DE"/>
<path d="M26.2207 90.8728V49.2729L52.4413 80.3496L26.2207 90.8728Z" fill="#B576C4"/>
<path d="M46.6694 82.6659L52.4413 80.3496L26.2207 49.2729L46.6694 82.6659Z" fill="#A864B8"/>
</g>
<defs>
<clipPath id="clip0_598:2530">
<rect width="96" height="96" fill="white"/>
</clipPath>
</defs>
</svg>
