<svg width="98" height="98" viewBox="0 0 98 98" fill="none" xmlns="http://www.w3.org/2000/svg">
<g clip-path="url(#clip0_598:2549)">
<path d="M48.9988 28.6821L17.4531 44.5608L48.9988 60.4397L80.5445 44.5608L48.9988 28.6821Z" fill="#B7BAE3"/>
<path d="M49 60.3896V98.0003L80.5457 82.1214V44.561L49 60.3896Z" fill="#615F82"/>
<path d="M72.6562 48.5187V86.0916L80.5437 82.1214V44.561L72.6562 48.5187Z" fill="#424068"/>
<path d="M17.4531 44.561L48.9988 60.3896V98.0003L17.4531 82.1214V44.561Z" fill="#212C52"/>
<path d="M48.9982 82.9042L67.8733 73.4032L48.9982 63.9023L30.123 73.4032L48.9982 82.9042Z" fill="#B7BAE3"/>
<path d="M48.9982 63.9324V41.4282L30.123 50.9293V73.4032L48.9982 63.9324Z" fill="#615F82"/>
<path d="M67.8732 73.4032L48.998 63.9324V41.4282L67.8732 50.9293V73.4032Z" fill="#212C52"/>
<path d="M48.9983 0L30.0918 9.37852L48.9983 19.088L67.9049 9.37852L48.9983 0Z" fill="#B7BAE3"/>
<path d="M48.998 19.0565V41.4281L67.9046 32.0495V9.37842L48.998 19.0565Z" fill="#615F82"/>
<path d="M60.0176 13.4159V35.9619L67.9049 32.0493V9.37842L60.0176 13.4159Z" fill="#424068"/>
<path d="M30.0918 9.37842L48.9983 19.0565V41.4281L30.0918 32.0495V9.37842Z" fill="#212C52"/>
</g>
<defs>
<clipPath id="clip0_598:2549">
<rect width="98" height="98" fill="white"/>
</clipPath>
</defs>
</svg>
