<svg width="96" height="96" viewBox="0 0 96 96" fill="none" xmlns="http://www.w3.org/2000/svg">
<path d="M47.9995 0L3.98145 21.9909L47.9995 43.9817L92.0176 21.9909L47.9995 0Z" fill="#B7BAE3"/>
<path d="M48 43.9119V95.9998L92.0181 74.0089V21.9907L48 43.9119Z" fill="#615F82"/>
<path d="M82.3594 26.8003V78.834L92.0173 74.0088V21.9907L82.3594 26.8003Z" fill="#424068"/>
<path d="M3.98145 21.9907L47.9995 43.9119V95.9998L3.98145 74.0089V21.9907Z" fill="#212C52"/>
<path d="M47.9993 75.0937L74.3374 61.9355L47.9993 48.7773L21.6611 61.9355L47.9993 75.0937Z" fill="#B7BAE3"/>
<path d="M47.9993 48.819V17.6523L21.6611 30.8105V61.9353L47.9993 48.819Z" fill="#615F82"/>
<path d="M38.3418 22.4773V53.6285L47.9997 48.819V17.6523L38.3418 22.4773Z" fill="#424068"/>
<path d="M74.3372 61.9353L47.999 48.819V17.6523L74.3372 30.8105V61.9353Z" fill="#212C52"/>
</svg>
