<svg width="163" height="50" viewBox="0 0 163 50" fill="none" xmlns="http://www.w3.org/2000/svg">
    <path d="M0 44.6749L7.90467 26.1943H9.83996L17.7446 44.6749H15.3732L13.0018 39.1144H4.63377L2.28963 44.6749H0ZM5.47876 37.0156H12.1023L8.80417 29.1654L5.47876 37.0156Z" fill="#202021"/>
    <path d="M23.3594 44.6748V26.3032H25.6217L32.5179 35.7343L39.1415 26.3032H41.2675V44.6748H39.0324V29.8194L32.5179 38.9507H32.1635L25.5672 29.9012V44.6748H23.3594Z" fill="#202021"/>
    <path d="M49.2812 44.6748V26.3032H51.5436L58.4398 35.7343L65.0633 26.3032H67.1894V44.6748H64.9543V29.8194L58.4398 38.9507H58.0854L51.4891 29.9012V44.6748H49.2812Z" fill="#202021"/>
    <path d="M72.832 44.6749L80.7367 26.1943H82.672L90.5767 44.6749H88.2053L85.8339 39.1144H77.4658L75.1217 44.6749H72.832ZM78.3108 37.0156H84.9344L81.6362 29.1654L78.3108 37.0156Z" fill="#202021"/>
    <path d="M91.8857 28.402V26.3032H106.986V28.402H100.554V44.6748H98.3185V28.402H91.8857V28.402Z" fill="#202021"/>
    <path d="M103.605 28.402V26.3032H118.706V28.402H112.273V44.6748H110.038V28.402H103.605V28.402Z" fill="#202021"/>
    <path d="M127.756 44.1296V32.3271H129.936V44.1296H127.756Z" fill="#202021"/>
    <path d="M137.487 0C127.756 0 119.279 5.4515 114.972 13.4652H7.98633V17.6083H123.122V28.4841H134.025V39.4143H144.983V49.9357C145.146 49.8812 145.31 49.854 145.391 49.8267C155.613 46.5013 163 36.8794 163 25.5403C163.027 11.4481 151.606 0 137.487 0ZM128.846 25.4585C127.347 25.4585 126.148 24.2592 126.148 22.76C126.148 21.2609 127.347 20.0615 128.846 20.0615C130.345 20.0615 131.545 21.2609 131.545 22.76C131.517 24.2592 130.318 25.4585 128.846 25.4585Z" fill="url(#paint0_linear_344:5651)"/>
    <defs>
        <linearGradient id="paint0_linear_344:5651" x1="7.98055" y1="24.9805" x2="163.029" y2="24.9805" gradientUnits="userSpaceOnUse">
            <stop offset="0.00531915" stop-color="#0F2356"/>
            <stop offset="0.3298" stop-color="#164193"/>
            <stop offset="0.4342" stop-color="#12509B"/>
            <stop offset="0.6551" stop-color="#0074B0"/>
            <stop offset="0.9724" stop-color="#27AEC7"/>
            <stop offset="1" stop-color="#2CB3C8"/>
        </linearGradient>
    </defs>
</svg>
